# xmcd
#
# Track frame offsets: 
#        150
#        12448
#        29945
#        49199
#        57593
#        76620
#        96511
#        116099
#        135908
#        153926
#        172160
#        193970
#        219426
#        232864
#        248476
#        260591
#
# Disc length: 3734 seconds
#
# Revision: 0
# Processed by: cddbd v1.5.1PL0 Copyright (c) Steve Scherf et al.
# Submitted via: ExactAudioCopy v0.95b2
#
DISCID=df0e9410
DTITLE=Sleep - Christopher
DYEAR=2005
DGENRE=Hip-Hop
TTITLE0=Intro
TTITLE1=Say Goodbye (Ft. Zelly Rock)
TTITLE2=Fall Guy
TTITLE3=I'm So Techno Skit (Ft. Pale Soul)
TTITLE4=Make Yourself Get Up
TTITLE5=Testimony
TTITLE6=So Tired
TTITLE7=Bucket
TTITLE8=Can't Be Touched (Ft. Abstract Rude)
TTITLE9=Live
TTITLE10=Guys Like Me (Ft. Josh Martinez)
TTITLE11=Never (Ft. Tony Hill)
TTITLE12=The Heat (Ft. Masta Ace)
TTITLE13=Dirt
TTITLE14=Dirt Interlude
TTITLE15=Love It To Death (Ft. Yadira Brown)
EXTD=
EXTT0=
EXTT1=
EXTT2=
EXTT3=
EXTT4=
EXTT5=
EXTT6=
EXTT7=
EXTT8=
EXTT9=
EXTT10=
EXTT11=
EXTT12=
EXTT13=
EXTT14=
EXTT15=
PLAYORDER=
